<svg xmlns="http://www.w3.org/2000/svg" version="1.1" xmlns:xlink="http://www.w3.org/1999/xlink" xmlns:svgjs="http://svgjs.dev/svgjs" width="1440" height="700" preserveAspectRatio="none" viewBox="0 0 1440 700">
    <g mask="url(&quot;#SvgjsMask1030&quot;)" fill="none">
        <rect width="1440" height="700" x="0" y="0" fill="rgba(228, 223, 220, 1)"></rect>
        <path d="M88 700L788 0L1119.5 0L419.5 700z" fill="url(&quot;#SvgjsLinearGradient1031&quot;)"></path>
        <path d="M565.2 700L1265.2 0L1692.7 0L992.7 700z" fill="url(&quot;#SvgjsLinearGradient1031&quot;)"></path>
        <path d="M1390 700L690 0L303 0L1003 700z" fill="url(&quot;#SvgjsLinearGradient1032&quot;)"></path>
        <path d="M959.8 700L259.79999999999995 0L-164.70000000000005 0L535.3 700z" fill="url(&quot;#SvgjsLinearGradient1032&quot;)"></path>
        <path d="M779.104718660441 700L1440 39.104718660440994L1440 700z" fill="url(&quot;#SvgjsLinearGradient1031&quot;)"></path>
        <path d="M0 700L660.895281339559 700L 0 39.104718660440994z" fill="url(&quot;#SvgjsLinearGradient1032&quot;)"></path>
    </g>
    <defs>
        <mask id="SvgjsMask1030">
            <rect width="1440" height="700" fill="#ffffff"></rect>
        </mask>
        <linearGradient x1="0%" y1="100%" x2="100%" y2="0%" id="SvgjsLinearGradient1031">
            <stop stop-color="rgba(248, 238, 236, 1)" offset="0"></stop>
            <stop stop-opacity="0" stop-color="rgba(248, 238, 236, 1)" offset="0.66"></stop>
        </linearGradient>
        <linearGradient x1="100%" y1="100%" x2="0%" y2="0%" id="SvgjsLinearGradient1032">
            <stop stop-color="rgba(248, 238, 236, 1)" offset="0"></stop>
            <stop stop-opacity="0" stop-color="rgba(248, 238, 236, 1)" offset="0.66"></stop>
        </linearGradient>
    </defs>
</svg>